<?xml version="1.0" encoding="utf-8"?>
<!-- Generator: Adobe Illustrator 26.1.0, SVG Export Plug-In . SVG Version: 6.00 Build 0)  -->
<svg version="1.1" id="Слой_1" xmlns="http://www.w3.org/2000/svg" xmlns:xlink="http://www.w3.org/1999/xlink" x="0px" y="0px"
	 viewBox="0 0 141.73 141.73" style="enable-background:new 0 0 141.73 141.73;" xml:space="preserve">
<style type="text/css">
	.st0{fill:#FFFFFF;}
</style>
<g>
	<path class="st0" d="M84.5,1.96c2.71,0.88,5.24,2.07,7.26,4.17c2.84,2.97,4.21,6.52,4.28,10.6c0.01,0.49,0.01,0.99,0.02,1.48
		c0,0.09,0.05,0.17,0.12,0.44c0.42,0,0.9,0,1.38,0c3.87,0,7.73-0.02,11.6,0c6.95,0.04,12.02,4.81,12.39,11.77
		c0.16,3.05,0.1,6.11,0.03,9.16c-0.06,2.49-1.74,4.04-4.25,4.11c-0.98,0.03-1.95,0-3.03,0c-0.16,2.66-0.3,5.16-0.46,7.89
		c0.51,0,0.93,0,1.35,0c2.52,0,5.03-0.02,7.55,0.01c2.5,0.02,4.33,1.72,4.36,4.01c0.03,2.35-1.8,4.06-4.41,4.07
		c-3.05,0.01-6.1,0-9.31,0c-0.19,2.93-0.38,5.78-0.55,8.63c-0.79,13.32-1.58,26.64-2.36,39.96c-0.49,8.34-0.96,16.68-1.45,25.03
		c-0.04,0.76-0.08,1.53-0.16,2.29c-0.28,2.83-1.75,4.17-4.59,4.17c-12.32,0.01-24.63,0-36.95,0c-9.84,0-19.69,0-29.53,0
		c-3.24,0-4.69-1.37-4.88-4.58c-1.17-19.91-2.34-39.83-3.51-59.74c-0.27-4.57-0.54-9.15-0.81-13.72c-0.04-0.62-0.12-1.25-0.19-2.04
		c-1.38,0-2.71,0-4.04,0c-1.89,0-3.78,0.03-5.66-0.01c-2.32-0.04-4.06-1.77-4.08-3.98c-0.02-2.19,1.7-4.02,4-4.08
		c2.56-0.07,5.12-0.02,7.69-0.02c0.49,0,0.97,0,1.65,0c-0.15-2.65-0.29-5.18-0.43-7.89c-1.05,0-2.02,0.02-2.99,0
		c-2.63-0.07-4.26-1.7-4.28-4.34c-0.02-2.79-0.03-5.57,0-8.36c0.07-7.14,5.24-12.3,12.37-12.35c4.31-0.03,8.62,0,13.08,0
		c0.05-0.43,0.11-0.81,0.12-1.19C45.98,9.45,49.5,4.65,57.06,2.13c0.08-0.03,0.13-0.11,0.2-0.17C66.33,1.96,75.41,1.96,84.5,1.96z
		 M40.81,131.61c20.14,0,40.13,0,60.21,0c1.72-29.29,3.44-58.51,5.16-87.8c-23.6,0-47.03,0-70.54,0
		C37.36,73.12,39.08,102.31,40.81,131.61z M28.38,35.56c28.44,0,56.68,0,85.13,0c0-1.3,0-2.54,0-3.79
		c-0.01-3.62-1.43-5.03-5.08-5.03c-25.03,0-50.06,0-75.09,0c-0.45,0-0.9-0.02-1.35,0.02c-1.85,0.16-3.46,1.61-3.59,3.44
		C28.29,31.95,28.38,33.7,28.38,35.56z M87.83,18.6c0.81-5.62-2.89-9.04-7.75-8.87c-6.38,0.22-12.76,0.04-19.15,0.06
		c-4.8,0.02-7.91,4.03-6.81,8.81C65.33,18.6,76.54,18.6,87.83,18.6z"/>
	<path class="st0" d="M49.31,87.38c-0.43-10.33-0.86-20.66-1.27-30.98c-0.1-2.57,1.46-4.4,3.77-4.53c2.34-0.13,4.17,1.6,4.29,4.21
		c0.32,6.69,0.58,13.38,0.86,20.07c0.6,14.14,1.19,28.29,1.8,42.43c0.1,2.44-1.18,4.28-3.34,4.69c-1.87,0.36-3.85-0.78-4.48-2.65
		c-0.18-0.54-0.24-1.14-0.27-1.72c-0.34-7.5-0.69-14.99-0.96-22.49c-0.11-3.01-0.02-6.02-0.02-9.03
		C49.57,87.38,49.44,87.38,49.31,87.38z"/>
	<path class="st0" d="M84.38,87.64c0.46-10.6,0.9-21.19,1.4-31.79c0.15-3.21,3.3-4.99,5.97-3.47c1.47,0.84,2.15,2.16,2.08,3.82
		c-0.44,10.64-0.9,21.28-1.35,31.93c-0.41,9.7-0.83,19.4-1.25,29.1c-0.03,0.81-0.03,1.62-0.14,2.42c-0.34,2.34-2.19,3.86-4.38,3.66
		c-2.15-0.2-3.69-1.96-3.63-4.27c0.09-3.41,0.23-6.83,0.38-10.24c0.3-7.05,0.62-14.1,0.93-21.15C84.4,87.64,84.39,87.64,84.38,87.64
		z"/>
	<path class="st0" d="M66.89,87.45c0-10.2,0-20.41,0.01-30.61c0-0.71,0-1.46,0.18-2.14c0.47-1.74,2.17-2.91,3.97-2.85
		c1.8,0.06,3.36,1.32,3.76,3.11c0.13,0.61,0.17,1.25,0.17,1.87c0.01,20.5,0.01,40.99,0.01,61.49c0,0.27,0.01,0.54-0.01,0.81
		c-0.12,2.44-1.82,4.18-4.06,4.18c-2.31,0-4.01-1.77-4.02-4.31c-0.02-7.51-0.01-15.01-0.01-22.52
		C66.89,93.48,66.89,90.46,66.89,87.45z"/>
</g>
</svg>
